<svg xmlns="http://www.w3.org/2000/svg" id="Layer_1" data-name="Layer 1" viewBox="0 0 24 24"><path d="M22.8,13.6h-.4V5.2a3.59,3.59,0,0,0-3.6-3.6,3.21,3.21,0,0,0-3.19,3.24A2,2,0,0,0,14,6.8a.38.38,0,0,0,.4.4h3.2a.38.38,0,0,0,.4-.4,2,2,0,0,0-1.58-2A2.42,2.42,0,0,1,18.8,2.4a2.78,2.78,0,0,1,2.8,2.8v8.4h-12a2,2,0,0,0-2-1.6A2.09,2.09,0,0,0,6,11.2a2,2,0,0,0-1.76,1.08,2.38,2.38,0,0,0-1-.28,2,2,0,0,0-2,1.6h0a1.2,1.2,0,0,0,0,2.4h.48l1.08,4.28A2.82,2.82,0,0,0,5.48,22.4H5.8l-.52,1a.35.35,0,0,0,.16.52.24.24,0,0,0,.16,0A.42.42,0,0,0,6,23.8l.7-1.4h11.1l.68,1.36a.38.38,0,0,0,.36.24c.08,0,.12,0,.16-.08a.42.42,0,0,0,.16-.52l-.5-1a2.84,2.84,0,0,0,2.62-2.08L22.33,16h.47a1.2,1.2,0,0,0,0-2.4ZM17.16,6.4H14.88A1.22,1.22,0,0,1,16,5.6,1.17,1.17,0,0,1,17.16,6.4Zm-14,6.4a1.34,1.34,0,0,1,1,.44.36.36,0,0,0,.4.12A.39.39,0,0,0,4.84,13,1.24,1.24,0,0,1,6,12a1.12,1.12,0,0,1,1,.6.4.4,0,0,0,.44.2h.12a1.17,1.17,0,0,1,1.12.8H2.08A1.17,1.17,0,0,1,3.2,12.8Zm17.32,7.28a2.05,2.05,0,0,1-2,1.52h-13a2.05,2.05,0,0,1-2-1.52L2.52,16h19ZM22.8,15.2H1.2a.4.4,0,1,1,0-.8H22.8a.4.4,0,1,1,0,.8Z"></path><path d="M14.4,9a.38.38,0,0,0,.4-.4V8.4a.4.4,0,0,0-.8,0v.2A.38.38,0,0,0,14.4,9Z"></path><path d="M14.4,10.84a.4.4,0,0,0,.4-.4V10a.4.4,0,0,0-.8,0v.44A.38.38,0,0,0,14.4,10.84Z"></path><path d="M14.4,12.4a.38.38,0,0,0,.4-.4v-.2a.4.4,0,0,0-.8,0V12A.38.38,0,0,0,14.4,12.4Z"></path><path d="M16,9a.38.38,0,0,0,.4-.4V8.4a.4.4,0,1,0-.8,0v.2A.38.38,0,0,0,16,9Z"></path><path d="M15.6,10.44a.38.38,0,0,0,.4.4.4.4,0,0,0,.4-.4V10a.4.4,0,1,0-.8,0Z"></path><path d="M15.6,12a.4.4,0,0,0,.8,0v-.2a.4.4,0,1,0-.8,0Z"></path><path d="M17.6,9a.38.38,0,0,0,.4-.4V8.4a.4.4,0,1,0-.8,0v.2A.38.38,0,0,0,17.6,9Z"></path><path d="M17.2,10.44a.38.38,0,0,0,.4.4.4.4,0,0,0,.4-.4V10a.4.4,0,1,0-.8,0v.44Z"></path><path d="M17.2,12a.4.4,0,1,0,.8,0v-.2a.4.4,0,1,0-.8,0Z"></path></svg>