<svg xmlns="http://www.w3.org/2000/svg" width="24" height="24" viewBox="0 0 24 24" fill="none"><g clip-path="url(#clip0_655_197)"><path fill-rule="evenodd" clip-rule="evenodd" d="M22.4 13H22.8C23.48 13 24 13.52 24 14.2C24 14.88 23.48 15.4 22.8 15.4H22.33L21.24 19.72C20.93 20.89 19.86 21.76 18.62 21.8L19.12 22.8C19.2 23 19.12 23.24 18.96 23.32C18.92 23.4 18.88 23.4 18.8 23.4C18.64 23.4 18.52 23.32 18.44 23.16L17.76 21.8H6.66L5.96 23.2C5.88 23.32 5.76 23.4 5.6 23.4C5.56 23.4 5.48 23.4 5.44 23.36C5.24 23.28 5.16 23.04 5.28 22.84L5.8 21.8H5.48C4.2 21.8 3.08 20.92 2.76 19.68L1.68 15.4H1.2C0.52 15.4 0 14.88 0 14.2C0 13.52 0.52 13 1.2 13H1.24C1.42 12.08 2.22 11.4 3.2 11.4C3.56 11.4 3.92 11.52 4.24 11.68C4.56 11.04 5.24 10.6 6 10.6C6.64 10.6 7.2 10.92 7.6 11.4C8.58 11.4 9.38 12.08 9.56 13H21.6V4.6C21.6 3.04 20.36 1.8 18.8 1.8C17.3 1.8 16.54 2.97 16.42 4.24C17.33 4.43 18 5.22 18 6.2C18 6.44 17.84 6.6 17.6 6.6H14.4C14.16 6.6 14 6.44 14 6.2C14 5.21 14.68 4.41 15.61 4.24C15.76 2.31 17.03 1 18.8 1C20.8 1 22.4 2.6 22.4 4.6V13ZM14.88 5.8H17.16C17 5.32 16.56 5 16.04 5C15.52 5 15.04 5.32 14.88 5.8ZM4.16 12.64C3.88 12.36 3.56 12.2 3.2 12.2C2.68 12.2 2.24 12.52 2.08 13H8.76C8.6 12.52 8.16 12.2 7.64 12.2H7.52C7.36 12.24 7.16 12.16 7.08 12C6.88 11.6 6.48 11.4 6.04 11.4C5.44 11.4 4.96 11.84 4.84 12.44C4.8 12.6 4.72 12.72 4.56 12.76C4.4 12.8 4.24 12.76 4.16 12.64ZM18.56 21C19.48 21 20.28 20.36 20.52 19.48L21.48 15.4H2.52L3.56 19.48C3.8 20.36 4.6 21 5.52 21H18.56ZM22 14.6H22.8C23.04 14.6 23.2 14.44 23.2 14.2C23.2 13.96 23.04 13.8 22.8 13.8H9.2H1.6H1.2C0.96 13.8 0.8 13.96 0.8 14.2C0.8 14.44 0.96 14.6 1.2 14.6H2H22ZM14.8 7.9999C14.8 8.2399 14.64 8.3999 14.4 8.3999C14.16 8.3999 14 8.2399 14 7.9999V7.7999C14 7.5599 14.16 7.3999 14.4 7.3999C14.64 7.3999 14.8 7.5599 14.8 7.7999V7.9999ZM14.4 10.24C14.64 10.24 14.8 10.04 14.8 9.84V9.4C14.8 9.16 14.64 9 14.4 9C14.16 9 14 9.16 14 9.4V9.84C14 10.08 14.16 10.24 14.4 10.24ZM14.8 11.4C14.8 11.64 14.64 11.8 14.4 11.8C14.16 11.8 14 11.64 14 11.4V11.2C14 10.96 14.16 10.8 14.4 10.8C14.64 10.8 14.8 10.96 14.8 11.2V11.4ZM16 8.3999C16.24 8.3999 16.4 8.2399 16.4 7.9999V7.7999C16.4 7.5599 16.24 7.3999 16 7.3999C15.76 7.3999 15.6 7.5599 15.6 7.7999V7.9999C15.6 8.2399 15.76 8.3999 16 8.3999ZM16 10.24C15.76 10.24 15.6 10.08 15.6 9.84V9.4C15.6 9.16 15.76 9 16 9C16.24 9 16.4 9.16 16.4 9.4V9.84C16.4 10.04 16.24 10.24 16 10.24ZM15.6 11.4C15.6 11.64 15.76 11.8 16 11.8C16.24 11.8 16.4 11.64 16.4 11.4V11.2C16.4 10.96 16.24 10.8 16 10.8C15.76 10.8 15.6 10.96 15.6 11.2V11.4ZM18 7.9999C18 8.2399 17.84 8.3999 17.6 8.3999C17.36 8.3999 17.2 8.2399 17.2 7.9999V7.7999C17.2 7.5599 17.36 7.3999 17.6 7.3999C17.84 7.3999 18 7.5599 18 7.7999V7.9999ZM17.2 9.84C17.2 10.08 17.36 10.24 17.6 10.24C17.84 10.24 18 10.04 18 9.84V9.4C18 9.16 17.84 9 17.6 9C17.36 9 17.2 9.16 17.2 9.4V9.84ZM17.6 11.8C17.36 11.8 17.2 11.64 17.2 11.4V11.2C17.2 10.96 17.36 10.8 17.6 10.8C17.84 10.8 18 10.96 18 11.2V11.4C18 11.64 17.84 11.8 17.6 11.8Z" fill="black"></path></g><defs><clipPath id="clip0_655_197"><rect width="24" height="22.4" fill="white" transform="translate(0 1)"></rect></clipPath></defs></svg>