<svg xmlns="http://www.w3.org/2000/svg" id="Layer_1" data-name="Layer 1" viewBox="0 0 24 24"><path d="M5.32,24l-.55-.12A4.26,4.26,0,0,1,2.19,22,11.6,11.6,0,0,1,.45,17.73C.28,16.88.16,16,.07,15.14a1.1,1.1,0,0,1,1.2-1.26h2.1c.15-.57.37-.73,1-.73q1.55,0,3.09,0a.75.75,0,0,1,.85.83v4.71a.76.76,0,0,1-.84.83H4.22a.76.76,0,0,1-.83-.83v-4c-.76,0-1.5,0-2.24,0a.34.34,0,0,0-.33.44c.1.79.18,1.59.33,2.37a11,11,0,0,0,1.63,4.08,3.51,3.51,0,0,0,2.08,1.6,4.07,4.07,0,0,0,.92.12H18.25a3.25,3.25,0,0,0,2.59-1.19,9.21,9.21,0,0,0,1.72-3.35,17.41,17.41,0,0,0,.65-3.44c.05-.54-.05-.64-.58-.64-4.44,0-8.89,0-13.33,0H9.13c-.31,0-.49-.13-.49-.37s.18-.37.5-.37c4.1,0,8.21,0,12.32,0h.29v-3H21c0,.22,0,.44,0,.67s-.13.44-.44.44H19.21c-.31,0-.44-.14-.44-.45s0-.43,0-.65c-.33-.14-.38-.2-.38-.54V9.42A.38.38,0,0,1,18.81,9h3.73a1.12,1.12,0,0,1,1.1,1.14V14a1.35,1.35,0,0,0,.11.34A1.7,1.7,0,0,1,24,15a13.79,13.79,0,0,1-2.11,7,4.26,4.26,0,0,1-2.36,1.85l-.77.18ZM7.5,18.74V13.89H4.16v4.85Zm11.65-8.61c.85,0,1.69,0,2.52,0a.75.75,0,0,1,.84.83c0,.89,0,1.77,0,2.65v.25h.38V10.14c0-.26-.16-.39-.46-.39H19.15Zm.38.76v.34h.72v-.34Z"></path><path d="M5.32,24l-.55-.12A4.26,4.26,0,0,1,2.19,22,11.6,11.6,0,0,1,.45,17.73C.28,16.88.16,16,.07,15.14a1.1,1.1,0,0,1,1.2-1.26h2.1c.15-.57.37-.73,1-.73q1.55,0,3.09,0a.75.75,0,0,1,.85.83v4.71a.76.76,0,0,1-.84.83H4.22a.76.76,0,0,1-.83-.83v-4c-.76,0-1.5,0-2.24,0a.34.34,0,0,0-.33.44c.1.79.18,1.59.33,2.37a11,11,0,0,0,1.63,4.08,3.51,3.51,0,0,0,2.08,1.6,4.07,4.07,0,0,0,.92.12H18.25a3.25,3.25,0,0,0,2.59-1.19,9.21,9.21,0,0,0,1.72-3.35,17.41,17.41,0,0,0,.65-3.44c.05-.54-.05-.64-.58-.64-4.44,0-8.89,0-13.33,0H9.13c-.31,0-.49-.13-.49-.37s.18-.37.5-.37c4.1,0,8.21,0,12.32,0h.29v-3H21c0,.22,0,.44,0,.67s-.13.44-.44.44H19.21c-.31,0-.44-.14-.44-.45s0-.43,0-.65c-.33-.14-.38-.2-.38-.54V9.42A.38.38,0,0,1,18.81,9h3.73a1.12,1.12,0,0,1,1.1,1.14V14a1.35,1.35,0,0,0,.11.34A1.7,1.7,0,0,1,24,15a13.79,13.79,0,0,1-2.11,7,4.26,4.26,0,0,1-2.36,1.85l-.77.18ZM7.5,18.74V13.89H4.16v4.85Zm11.65-8.61c.85,0,1.69,0,2.52,0a.75.75,0,0,1,.84.83c0,.89,0,1.77,0,2.65v.25h.38V10.14c0-.26-.16-.39-.46-.39H19.15Zm.38.76v.34h.72v-.34Z"></path><path d="M24,2.77a.56.56,0,0,1-.54.23H22.14V7.39a.76.76,0,0,1-.85.86H15.85A.75.75,0,0,1,15,7.4V1.51H13.91v.74h.36a.38.38,0,0,1,.37.38.37.37,0,0,1-.38.37h-.75a.35.35,0,0,1-.36-.38q0-.75,0-1.5c0-.24.16-.37.42-.37H15c.16-.59.37-.75,1-.75H21.2c.6,0,.81.16,1,.75.43,0,.87,0,1.3,0A.56.56,0,0,1,24,1ZM21.38,7.49V.77h-5.6V7.49Zm1.87-6H22.16v.72h1.09Z"></path><path d="M24,2.77a.56.56,0,0,1-.54.23H22.14V7.39a.76.76,0,0,1-.85.86H15.85A.75.75,0,0,1,15,7.4V1.51H13.91v.74h.36a.38.38,0,0,1,.37.38.37.37,0,0,1-.38.37h-.75a.35.35,0,0,1-.36-.38q0-.75,0-1.5c0-.24.16-.37.42-.37H15c.16-.59.37-.75,1-.75H21.2c.6,0,.81.16,1,.75.43,0,.87,0,1.3,0A.56.56,0,0,1,24,1ZM21.38,7.49V.77h-5.6V7.49Zm1.87-6H22.16v.72h1.09Z"></path><path d="M1.56,8.63c.1-.76.19-1.49.28-2.21.06-.52.26-.72.79-.81V4.87H2.28a.36.36,0,0,1-.38-.36.36.36,0,0,1,.39-.38H3a.36.36,0,0,1,.4.41c0,.35,0,.7,0,1.07.56,0,.77.38.82.9.07.7.17,1.39.26,2.1h.42V6.79A.75.75,0,0,1,5.67,6H7.5a.75.75,0,0,1,.77.77V8.61H9c-.09-.29-.17-.58-.25-.86s0-.5.32-.65c0-.19,0-.37,0-.56a.93.93,0,0,1,.91-.91h.8a.93.93,0,0,1,.91.92c0,.18,0,.36,0,.53.4.21.43.29.31.72-.08.25-.15.51-.22.77a.22.22,0,0,1,0,.06c.43,0,.87,0,1.31,0s.46.13.47.46v1.34c0,.31-.14.44-.45.44q-6.3,0-12.6,0c-.31,0-.45-.13-.45-.44V9.07c0-.31.14-.44.45-.44S1.18,8.63,1.56,8.63Zm11.2.76H.79v.72h12ZM2.32,8.61h1.4L3.44,6.39H2.6Zm3.33,0H7.5V7.89H5.65Zm5.49-.72H9.52l.22.74h1.18Zm-.81-.76h.24c.29,0,.32,0,.32-.37s0-.37-.32-.37h-.42c-.36,0-.38,0-.38.38s0,.36.35.36Zm-2.83,0V6.77H5.66v.34Z"></path><path d="M1.56,8.63c.1-.76.19-1.49.28-2.21.06-.52.26-.72.79-.81V4.87H2.28a.36.36,0,0,1-.38-.36.36.36,0,0,1,.39-.38H3a.36.36,0,0,1,.4.41c0,.35,0,.7,0,1.07.56,0,.77.38.82.9.07.7.17,1.39.26,2.1h.42V6.79A.75.75,0,0,1,5.67,6H7.5a.75.75,0,0,1,.77.77V8.61H9c-.09-.29-.17-.58-.25-.86s0-.5.32-.65c0-.19,0-.37,0-.56a.93.93,0,0,1,.91-.91h.8a.93.93,0,0,1,.91.92c0,.18,0,.36,0,.53.4.21.43.29.31.72-.08.25-.15.51-.22.77a.22.22,0,0,1,0,.06c.43,0,.87,0,1.31,0s.46.13.47.46v1.34c0,.31-.14.44-.45.44q-6.3,0-12.6,0c-.31,0-.45-.13-.45-.44V9.07c0-.31.14-.44.45-.44S1.18,8.63,1.56,8.63Zm11.2.76H.79v.72h12ZM2.32,8.61h1.4L3.44,6.39H2.6Zm3.33,0H7.5V7.89H5.65Zm5.49-.72H9.52l.22.74h1.18Zm-.81-.76h.24c.29,0,.32,0,.32-.37s0-.37-.32-.37h-.42c-.36,0-.38,0-.38.38s0,.36.35.36Zm-2.83,0V6.77H5.66v.34Z"></path></svg>